# xmcd
#
# Track frame offsets: 
#        150
#        17361
#        33511
#        50419
#        60444
#        76305
#        90846
#        104923
#        119787
#        136916
#        153116
#        170714
#
# Disc length: 2446 seconds
#
# Revision: 0
# Processed by: cddbd v1.5.2PL0 Copyright (c) Steve Scherf et al.
# Submitted via: ExactAudioCopy v0.99pb4
#
DISCID=93098c0c
DTITLE=ยอดรัก สลักใจ - ปัดฝุ่น รุ่นพิเศษ
DYEAR=2008
DGENRE=Country
TTITLE0=ล่องเรือหารัก
TTITLE1=ขอพักใจ
TTITLE2=คนหัวใจโทรม
TTITLE3=ยอดรักเมา
TTITLE4=เอาแน่
TTITLE5=หนุ่มชาวนา
TTITLE6=สุขเถิดที่รัก
TTITLE7=เล่ห์รัก
TTITLE8=หนุ่มรำโทน
TTITLE9=ช้ำดวงใจ
TTITLE10=เกี๊ยะลอยน้ำ
TTITLE11=คืนรำวง
EXTD=
EXTT0=
EXTT1=
EXTT2=
EXTT3=
EXTT4=
EXTT5=
EXTT6=
EXTT7=
EXTT8=
EXTT9=
EXTT10=
EXTT11=
PLAYORDER=
